<?xml version="1.0" encoding="iso-8859-1"?>
<!-- Generator: Adobe Illustrator 19.0.0, SVG Export Plug-In . SVG Version: 6.00 Build 0)  -->
<svg version="1.1" id="Layer_1" xmlns="http://www.w3.org/2000/svg" xmlns:xlink="http://www.w3.org/1999/xlink" x="0px" y="0px"
	 viewBox="0 0 496.158 496.158" style="enable-background:new 0 0 496.158 496.158;" xml:space="preserve">
<path style="fill:#337180;" d="M496.158,248.085c0-137.022-111.07-248.082-248.076-248.082C111.07,0.003,0,111.063,0,248.085
	c0,137.001,111.07,248.07,248.082,248.07C385.088,496.155,496.158,385.086,496.158,248.085z"/>
<path style="fill:#A3D5E0;" d="M402.805,186.123c-2.059-1.506-4.711-1.941-7.145-1.17l-319,111c-3.761,1.193-6.09,4.95-5.486,8.85
	c0.604,3.9,3.959,6.776,7.905,6.776h318.999c4.42,0,8-3.581,8-8v-111C406.078,190.028,404.863,187.631,402.805,186.123z"/>
<g>
</g>
<g>
</g>
<g>
</g>
<g>
</g>
<g>
</g>
<g>
</g>
<g>
</g>
<g>
</g>
<g>
</g>
<g>
</g>
<g>
</g>
<g>
</g>
<g>
</g>
<g>
</g>
<g>
</g>
</svg>
