<?xml version="1.0" encoding="utf-8"?>
<!-- Generator: Adobe Illustrator 21.0.2, SVG Export Plug-In . SVG Version: 6.00 Build 0)  -->
<svg version="1.1" id="Layer_1" xmlns="http://www.w3.org/2000/svg" xmlns:xlink="http://www.w3.org/1999/xlink" x="0px" y="0px"
	 viewBox="0 0 95.5 24" style="enable-background:new 0 0 95.5 24;" xml:space="preserve">
<style type="text/css">
	.st0{fill:#EE6E7A;}
</style>
<title>Asset 2</title>
<g id="Layer_2">
	<g id="Layer_1-2">
		<path class="st0" d="M1.9,14c1,0.8,2.3,1.3,3.6,1.4c0.9,0,1.2-0.3,1.2-0.7c0-1.4-6.2-1.1-6.2-5.5c0-2.8,2.5-4.3,5.5-4.3
			c1.7-0.1,3.4,0.5,4.8,1.5L9.3,9.5c-1-0.7-2.2-1.1-3.4-1.1c-1,0-1.2,0.3-1.2,0.6c0,1.4,6.3,1.1,6.3,5.4c0,2.5-2.1,4.4-5.5,4.4
			c-2,0-3.9-0.7-5.4-2L1.9,14z"/>
		<path class="st0" d="M13,8.9h-1.8V5.4h1.9v-2l4.4-1.9v3.8h2.8v3.5h-2.8V13c0,1.5,1.5,1.7,2.4,1.7c0.2,0,0.4,0,0.6,0v3.9
			c-0.3,0-0.7,0.1-1.2,0.1c-2.1,0-6.2-0.6-6.2-5.1L13,8.9z"/>
		<path class="st0" d="M28.4,10.2h0.4V10c0-1.1-0.9-1.5-1.9-1.5c-1.3,0.1-2.6,0.5-3.7,1.3l-1.6-3.2c1.7-1.1,3.6-1.7,5.7-1.7
			c3.7,0,6,2,6,5.4v8.2h-4.1v-0.8c0-0.3,0-0.6,0-0.8h0c-0.9,1.3-2.4,2-4,2c-2.3,0.1-4.2-1.6-4.4-3.8c0-0.1,0-0.2,0-0.3
			C20.9,11.2,25.1,10.2,28.4,10.2z M26.6,15.5c1.3-0.1,2.2-1.1,2.3-2.4v-0.4h-0.4c-1.4,0-3.1,0.4-3.1,1.6c0,0.6,0.5,1.1,1.1,1.2
			C26.5,15.5,26.5,15.5,26.6,15.5L26.6,15.5z"/>
		<path class="st0" d="M40.7,20.3c1.6,0,3.1-0.6,3.1-2.6v-0.4c0-0.2,0-0.5,0-0.5h0c-0.8,1-2.1,1.5-3.3,1.4c-4,0-6-3.3-6-6.7
			s2-6.6,6-6.6c1.3,0,2.6,0.4,3.6,1.3h0.1c0-0.1,0-0.2,0-0.3V5.2h4.2v12.1c0,4.9-3.9,6.7-7.5,6.7c-1.8,0-3.5-0.4-5.1-1.2l1.2-3.4
			C38.2,20,39.4,20.3,40.7,20.3z M41.5,14.4c1.2,0,2.4-0.6,2.4-2.9s-1.2-2.9-2.6-2.9c-1.6,0-2.3,1.2-2.3,2.7S39.7,14.4,41.5,14.4
			L41.5,14.4z"/>
		<path class="st0" d="M55.9,20.3c1.6,0,3.1-0.6,3.1-2.6v-0.4c0-0.2,0-0.5,0-0.5l0,0c-0.8,1-2.1,1.5-3.3,1.4c-4,0-6-3.3-6-6.7
			s2-6.6,6-6.6c1.3,0,2.6,0.4,3.6,1.3h0.1c0-0.1,0-0.2,0-0.3V5.2h4.2v12.1c0,4.9-3.9,6.7-7.5,6.7c-1.8,0-3.5-0.4-5.1-1.2l1.3-3.4
			C53.4,20,54.6,20.3,55.9,20.3z M56.7,14.4c1.2,0,2.4-0.6,2.4-2.9s-1.2-2.9-2.6-2.9c-1.6,0-2.4,1.1-2.4,2.7S54.9,14.4,56.7,14.4
			L56.7,14.4z"/>
		<path class="st0" d="M65.4,1.9L69.9,0v13c0,1.3,0.2,1.7,1.2,1.7c0.2,0,0.4,0,0.6,0v3.9c-0.3,0-0.8,0.1-1.3,0.1
			c-2.4,0-4.9-0.6-4.9-5.1L65.4,1.9z"/>
		<path class="st0" d="M79,4.9c3.9,0,6.2,2.8,6.2,6.5c0,0.5,0,0.9-0.1,1.4h-8.5c0.3,1.5,1.6,2.5,3.1,2.4c1.3-0.1,2.6-0.6,3.7-1.4
			l1.7,3.1c-1.6,1.3-3.6,2-5.7,2c-3.8,0.2-7.1-2.7-7.3-6.5c0-0.2,0-0.3,0-0.5c-0.2-3.7,2.6-6.8,6.3-7C78.5,4.9,78.8,4.9,79,4.9z
			 M80.7,10.2c0.1-1-0.7-1.9-1.7-2c0,0-0.1,0-0.1,0c-1.1,0-2,0.9-2.2,2H80.7z"/>
		<path class="st0" d="M86.5,5.2h4.3v2.3c0,0.3,0,0.6-0.1,0.8h0.1C91.3,6.4,93,5.1,95,5c0.2,0,0.3,0,0.5,0.1v4.4
			c-0.3-0.1-0.6-0.1-0.9-0.1c-2.5,0-3.7,1.6-3.7,4v5.2h-4.5V5.2z"/>
	</g>
</g>
</svg>
